<?xml version="1.0" encoding="utf-8" standalone="no"?>
<!DOCTYPE svg PUBLIC "-//W3C//DTD SVG 1.1//EN"
  "http://www.w3.org/Graphics/SVG/1.1/DTD/svg11.dtd">
<svg xmlns:xlink="http://www.w3.org/1999/xlink" width="247.978125pt" height="183.35625pt" viewBox="0 0 247.978125 183.35625" xmlns="http://www.w3.org/2000/svg" version="1.1">
 <metadata>
  <rdf:RDF xmlns:dc="http://purl.org/dc/elements/1.1/" xmlns:cc="http://creativecommons.org/ns#" xmlns:rdf="http://www.w3.org/1999/02/22-rdf-syntax-ns#">
   <cc:Work>
    <dc:type rdf:resource="http://purl.org/dc/dcmitype/StillImage"/>
    <dc:date>2025-03-19T15:22:30.174442</dc:date>
    <dc:format>image/svg+xml</dc:format>
    <dc:creator>
     <cc:Agent>
      <dc:title>Matplotlib v3.7.2, https://matplotlib.org/</dc:title>
     </cc:Agent>
    </dc:creator>
   </cc:Work>
  </rdf:RDF>
 </metadata>
 <defs>
  <style type="text/css">*{stroke-linejoin: round; stroke-linecap: butt}</style>
 </defs>
 <g id="figure_1">
  <g id="patch_1">
   <path d="M 0 183.35625 
L 247.978125 183.35625 
L 247.978125 0 
L 0 0 
z
" style="fill: #ffffff"/>
  </g>
  <g id="axes_1">
   <g id="patch_2">
    <path d="M 45.478125 145.8 
L 240.778125 145.8 
L 240.778125 7.2 
L 45.478125 7.2 
z
" style="fill: #ffffff"/>
   </g>
   <g id="matplotlib.axis_1">
    <g id="xtick_1">
     <g id="line2d_1">
      <path d="M 54.355398 145.8 
L 54.355398 7.2 
" clip-path="url(#p3bd50f03f7)" style="fill: none; stroke: #b0b0b0; stroke-width: 0.8; stroke-linecap: square"/>
     </g>
     <g id="line2d_2">
      <defs>
       <path id="mfa3320594f" d="M 0 0 
L 0 3.5 
" style="stroke: #000000; stroke-width: 0.8"/>
      </defs>
      <g>
       <use xlink:href="#mfa3320594f" x="54.355398" y="145.8" style="stroke: #000000; stroke-width: 0.8"/>
      </g>
     </g>
     <g id="text_1">
      <!-- $\mathdefault{10^{0}}$ -->
      <g transform="translate(45.555398 160.398438) scale(0.1 -0.1)">
       <defs>
        <path id="DejaVuSans-31" d="M 794 531 
L 1825 531 
L 1825 4091 
L 703 3866 
L 703 4441 
L 1819 4666 
L 2450 4666 
L 2450 531 
L 3481 531 
L 3481 0 
L 794 0 
L 794 531 
z
" transform="scale(0.015625)"/>
        <path id="DejaVuSans-30" d="M 2034 4250 
Q 1547 4250 1301 3770 
Q 1056 3291 1056 2328 
Q 1056 1369 1301 889 
Q 1547 409 2034 409 
Q 2525 409 2770 889 
Q 3016 1369 3016 2328 
Q 3016 3291 2770 3770 
Q 2525 4250 2034 4250 
z
M 2034 4750 
Q 2819 4750 3233 4129 
Q 3647 3509 3647 2328 
Q 3647 1150 3233 529 
Q 2819 -91 2034 -91 
Q 1250 -91 836 529 
Q 422 1150 422 2328 
Q 422 3509 836 4129 
Q 1250 4750 2034 4750 
z
" transform="scale(0.015625)"/>
       </defs>
       <use xlink:href="#DejaVuSans-31" transform="translate(0 0.765625)"/>
       <use xlink:href="#DejaVuSans-30" transform="translate(63.623047 0.765625)"/>
       <use xlink:href="#DejaVuSans-30" transform="translate(128.203125 39.046875) scale(0.7)"/>
      </g>
     </g>
    </g>
    <g id="xtick_2">
     <g id="line2d_3">
      <path d="M 94.026857 145.8 
L 94.026857 7.2 
" clip-path="url(#p3bd50f03f7)" style="fill: none; stroke: #b0b0b0; stroke-width: 0.8; stroke-linecap: square"/>
     </g>
     <g id="line2d_4">
      <g>
       <use xlink:href="#mfa3320594f" x="94.026857" y="145.8" style="stroke: #000000; stroke-width: 0.8"/>
      </g>
     </g>
     <g id="text_2">
      <!-- $\mathdefault{10^{1}}$ -->
      <g transform="translate(85.226857 160.398438) scale(0.1 -0.1)">
       <use xlink:href="#DejaVuSans-31" transform="translate(0 0.684375)"/>
       <use xlink:href="#DejaVuSans-30" transform="translate(63.623047 0.684375)"/>
       <use xlink:href="#DejaVuSans-31" transform="translate(128.203125 38.965625) scale(0.7)"/>
      </g>
     </g>
    </g>
    <g id="xtick_3">
     <g id="line2d_5">
      <path d="M 133.698316 145.8 
L 133.698316 7.2 
" clip-path="url(#p3bd50f03f7)" style="fill: none; stroke: #b0b0b0; stroke-width: 0.8; stroke-linecap: square"/>
     </g>
     <g id="line2d_6">
      <g>
       <use xlink:href="#mfa3320594f" x="133.698316" y="145.8" style="stroke: #000000; stroke-width: 0.8"/>
      </g>
     </g>
     <g id="text_3">
      <!-- $\mathdefault{10^{2}}$ -->
      <g transform="translate(124.898316 160.398438) scale(0.1 -0.1)">
       <defs>
        <path id="DejaVuSans-32" d="M 1228 531 
L 3431 531 
L 3431 0 
L 469 0 
L 469 531 
Q 828 903 1448 1529 
Q 2069 2156 2228 2338 
Q 2531 2678 2651 2914 
Q 2772 3150 2772 3378 
Q 2772 3750 2511 3984 
Q 2250 4219 1831 4219 
Q 1534 4219 1204 4116 
Q 875 4013 500 3803 
L 500 4441 
Q 881 4594 1212 4672 
Q 1544 4750 1819 4750 
Q 2544 4750 2975 4387 
Q 3406 4025 3406 3419 
Q 3406 3131 3298 2873 
Q 3191 2616 2906 2266 
Q 2828 2175 2409 1742 
Q 1991 1309 1228 531 
z
" transform="scale(0.015625)"/>
       </defs>
       <use xlink:href="#DejaVuSans-31" transform="translate(0 0.765625)"/>
       <use xlink:href="#DejaVuSans-30" transform="translate(63.623047 0.765625)"/>
       <use xlink:href="#DejaVuSans-32" transform="translate(128.203125 39.046875) scale(0.7)"/>
      </g>
     </g>
    </g>
    <g id="xtick_4">
     <g id="line2d_7">
      <path d="M 173.369775 145.8 
L 173.369775 7.2 
" clip-path="url(#p3bd50f03f7)" style="fill: none; stroke: #b0b0b0; stroke-width: 0.8; stroke-linecap: square"/>
     </g>
     <g id="line2d_8">
      <g>
       <use xlink:href="#mfa3320594f" x="173.369775" y="145.8" style="stroke: #000000; stroke-width: 0.8"/>
      </g>
     </g>
     <g id="text_4">
      <!-- $\mathdefault{10^{3}}$ -->
      <g transform="translate(164.569775 160.398438) scale(0.1 -0.1)">
       <defs>
        <path id="DejaVuSans-33" d="M 2597 2516 
Q 3050 2419 3304 2112 
Q 3559 1806 3559 1356 
Q 3559 666 3084 287 
Q 2609 -91 1734 -91 
Q 1441 -91 1130 -33 
Q 819 25 488 141 
L 488 750 
Q 750 597 1062 519 
Q 1375 441 1716 441 
Q 2309 441 2620 675 
Q 2931 909 2931 1356 
Q 2931 1769 2642 2001 
Q 2353 2234 1838 2234 
L 1294 2234 
L 1294 2753 
L 1863 2753 
Q 2328 2753 2575 2939 
Q 2822 3125 2822 3475 
Q 2822 3834 2567 4026 
Q 2313 4219 1838 4219 
Q 1578 4219 1281 4162 
Q 984 4106 628 3988 
L 628 4550 
Q 988 4650 1302 4700 
Q 1616 4750 1894 4750 
Q 2613 4750 3031 4423 
Q 3450 4097 3450 3541 
Q 3450 3153 3228 2886 
Q 3006 2619 2597 2516 
z
" transform="scale(0.015625)"/>
       </defs>
       <use xlink:href="#DejaVuSans-31" transform="translate(0 0.765625)"/>
       <use xlink:href="#DejaVuSans-30" transform="translate(63.623047 0.765625)"/>
       <use xlink:href="#DejaVuSans-33" transform="translate(128.203125 39.046875) scale(0.7)"/>
      </g>
     </g>
    </g>
    <g id="xtick_5">
     <g id="line2d_9">
      <path d="M 213.041234 145.8 
L 213.041234 7.2 
" clip-path="url(#p3bd50f03f7)" style="fill: none; stroke: #b0b0b0; stroke-width: 0.8; stroke-linecap: square"/>
     </g>
     <g id="line2d_10">
      <g>
       <use xlink:href="#mfa3320594f" x="213.041234" y="145.8" style="stroke: #000000; stroke-width: 0.8"/>
      </g>
     </g>
     <g id="text_5">
      <!-- $\mathdefault{10^{4}}$ -->
      <g transform="translate(204.241234 160.398438) scale(0.1 -0.1)">
       <defs>
        <path id="DejaVuSans-34" d="M 2419 4116 
L 825 1625 
L 2419 1625 
L 2419 4116 
z
M 2253 4666 
L 3047 4666 
L 3047 1625 
L 3713 1625 
L 3713 1100 
L 3047 1100 
L 3047 0 
L 2419 0 
L 2419 1100 
L 313 1100 
L 313 1709 
L 2253 4666 
z
" transform="scale(0.015625)"/>
       </defs>
       <use xlink:href="#DejaVuSans-31" transform="translate(0 0.684375)"/>
       <use xlink:href="#DejaVuSans-30" transform="translate(63.623047 0.684375)"/>
       <use xlink:href="#DejaVuSans-34" transform="translate(128.203125 38.965625) scale(0.7)"/>
      </g>
     </g>
    </g>
    <g id="xtick_6">
     <g id="line2d_11">
      <defs>
       <path id="mdbfb05d5e8" d="M 0 0 
L 0 2 
" style="stroke: #000000; stroke-width: 0.6"/>
      </defs>
      <g>
       <use xlink:href="#mdbfb05d5e8" x="45.554334" y="145.8" style="stroke: #000000; stroke-width: 0.6"/>
      </g>
     </g>
    </g>
    <g id="xtick_7">
     <g id="line2d_12">
      <g>
       <use xlink:href="#mdbfb05d5e8" x="48.210211" y="145.8" style="stroke: #000000; stroke-width: 0.6"/>
      </g>
     </g>
    </g>
    <g id="xtick_8">
     <g id="line2d_13">
      <g>
       <use xlink:href="#mdbfb05d5e8" x="50.510836" y="145.8" style="stroke: #000000; stroke-width: 0.6"/>
      </g>
     </g>
    </g>
    <g id="xtick_9">
     <g id="line2d_14">
      <g>
       <use xlink:href="#mdbfb05d5e8" x="52.540131" y="145.8" style="stroke: #000000; stroke-width: 0.6"/>
      </g>
     </g>
    </g>
    <g id="xtick_10">
     <g id="line2d_15">
      <g>
       <use xlink:href="#mdbfb05d5e8" x="66.297697" y="145.8" style="stroke: #000000; stroke-width: 0.6"/>
      </g>
     </g>
    </g>
    <g id="xtick_11">
     <g id="line2d_16">
      <g>
       <use xlink:href="#mdbfb05d5e8" x="73.283494" y="145.8" style="stroke: #000000; stroke-width: 0.6"/>
      </g>
     </g>
    </g>
    <g id="xtick_12">
     <g id="line2d_17">
      <g>
       <use xlink:href="#mdbfb05d5e8" x="78.239996" y="145.8" style="stroke: #000000; stroke-width: 0.6"/>
      </g>
     </g>
    </g>
    <g id="xtick_13">
     <g id="line2d_18">
      <g>
       <use xlink:href="#mdbfb05d5e8" x="82.084558" y="145.8" style="stroke: #000000; stroke-width: 0.6"/>
      </g>
     </g>
    </g>
    <g id="xtick_14">
     <g id="line2d_19">
      <g>
       <use xlink:href="#mdbfb05d5e8" x="85.225793" y="145.8" style="stroke: #000000; stroke-width: 0.6"/>
      </g>
     </g>
    </g>
    <g id="xtick_15">
     <g id="line2d_20">
      <g>
       <use xlink:href="#mdbfb05d5e8" x="87.88167" y="145.8" style="stroke: #000000; stroke-width: 0.6"/>
      </g>
     </g>
    </g>
    <g id="xtick_16">
     <g id="line2d_21">
      <g>
       <use xlink:href="#mdbfb05d5e8" x="90.182295" y="145.8" style="stroke: #000000; stroke-width: 0.6"/>
      </g>
     </g>
    </g>
    <g id="xtick_17">
     <g id="line2d_22">
      <g>
       <use xlink:href="#mdbfb05d5e8" x="92.21159" y="145.8" style="stroke: #000000; stroke-width: 0.6"/>
      </g>
     </g>
    </g>
    <g id="xtick_18">
     <g id="line2d_23">
      <g>
       <use xlink:href="#mdbfb05d5e8" x="105.969156" y="145.8" style="stroke: #000000; stroke-width: 0.6"/>
      </g>
     </g>
    </g>
    <g id="xtick_19">
     <g id="line2d_24">
      <g>
       <use xlink:href="#mdbfb05d5e8" x="112.954953" y="145.8" style="stroke: #000000; stroke-width: 0.6"/>
      </g>
     </g>
    </g>
    <g id="xtick_20">
     <g id="line2d_25">
      <g>
       <use xlink:href="#mdbfb05d5e8" x="117.911455" y="145.8" style="stroke: #000000; stroke-width: 0.6"/>
      </g>
     </g>
    </g>
    <g id="xtick_21">
     <g id="line2d_26">
      <g>
       <use xlink:href="#mdbfb05d5e8" x="121.756017" y="145.8" style="stroke: #000000; stroke-width: 0.6"/>
      </g>
     </g>
    </g>
    <g id="xtick_22">
     <g id="line2d_27">
      <g>
       <use xlink:href="#mdbfb05d5e8" x="124.897252" y="145.8" style="stroke: #000000; stroke-width: 0.6"/>
      </g>
     </g>
    </g>
    <g id="xtick_23">
     <g id="line2d_28">
      <g>
       <use xlink:href="#mdbfb05d5e8" x="127.553129" y="145.8" style="stroke: #000000; stroke-width: 0.6"/>
      </g>
     </g>
    </g>
    <g id="xtick_24">
     <g id="line2d_29">
      <g>
       <use xlink:href="#mdbfb05d5e8" x="129.853754" y="145.8" style="stroke: #000000; stroke-width: 0.6"/>
      </g>
     </g>
    </g>
    <g id="xtick_25">
     <g id="line2d_30">
      <g>
       <use xlink:href="#mdbfb05d5e8" x="131.883049" y="145.8" style="stroke: #000000; stroke-width: 0.6"/>
      </g>
     </g>
    </g>
    <g id="xtick_26">
     <g id="line2d_31">
      <g>
       <use xlink:href="#mdbfb05d5e8" x="145.640615" y="145.8" style="stroke: #000000; stroke-width: 0.6"/>
      </g>
     </g>
    </g>
    <g id="xtick_27">
     <g id="line2d_32">
      <g>
       <use xlink:href="#mdbfb05d5e8" x="152.626412" y="145.8" style="stroke: #000000; stroke-width: 0.6"/>
      </g>
     </g>
    </g>
    <g id="xtick_28">
     <g id="line2d_33">
      <g>
       <use xlink:href="#mdbfb05d5e8" x="157.582914" y="145.8" style="stroke: #000000; stroke-width: 0.6"/>
      </g>
     </g>
    </g>
    <g id="xtick_29">
     <g id="line2d_34">
      <g>
       <use xlink:href="#mdbfb05d5e8" x="161.427476" y="145.8" style="stroke: #000000; stroke-width: 0.6"/>
      </g>
     </g>
    </g>
    <g id="xtick_30">
     <g id="line2d_35">
      <g>
       <use xlink:href="#mdbfb05d5e8" x="164.568711" y="145.8" style="stroke: #000000; stroke-width: 0.6"/>
      </g>
     </g>
    </g>
    <g id="xtick_31">
     <g id="line2d_36">
      <g>
       <use xlink:href="#mdbfb05d5e8" x="167.224588" y="145.8" style="stroke: #000000; stroke-width: 0.6"/>
      </g>
     </g>
    </g>
    <g id="xtick_32">
     <g id="line2d_37">
      <g>
       <use xlink:href="#mdbfb05d5e8" x="169.525213" y="145.8" style="stroke: #000000; stroke-width: 0.6"/>
      </g>
     </g>
    </g>
    <g id="xtick_33">
     <g id="line2d_38">
      <g>
       <use xlink:href="#mdbfb05d5e8" x="171.554508" y="145.8" style="stroke: #000000; stroke-width: 0.6"/>
      </g>
     </g>
    </g>
    <g id="xtick_34">
     <g id="line2d_39">
      <g>
       <use xlink:href="#mdbfb05d5e8" x="185.312074" y="145.8" style="stroke: #000000; stroke-width: 0.6"/>
      </g>
     </g>
    </g>
    <g id="xtick_35">
     <g id="line2d_40">
      <g>
       <use xlink:href="#mdbfb05d5e8" x="192.297871" y="145.8" style="stroke: #000000; stroke-width: 0.6"/>
      </g>
     </g>
    </g>
    <g id="xtick_36">
     <g id="line2d_41">
      <g>
       <use xlink:href="#mdbfb05d5e8" x="197.254373" y="145.8" style="stroke: #000000; stroke-width: 0.6"/>
      </g>
     </g>
    </g>
    <g id="xtick_37">
     <g id="line2d_42">
      <g>
       <use xlink:href="#mdbfb05d5e8" x="201.098935" y="145.8" style="stroke: #000000; stroke-width: 0.6"/>
      </g>
     </g>
    </g>
    <g id="xtick_38">
     <g id="line2d_43">
      <g>
       <use xlink:href="#mdbfb05d5e8" x="204.24017" y="145.8" style="stroke: #000000; stroke-width: 0.6"/>
      </g>
     </g>
    </g>
    <g id="xtick_39">
     <g id="line2d_44">
      <g>
       <use xlink:href="#mdbfb05d5e8" x="206.896047" y="145.8" style="stroke: #000000; stroke-width: 0.6"/>
      </g>
     </g>
    </g>
    <g id="xtick_40">
     <g id="line2d_45">
      <g>
       <use xlink:href="#mdbfb05d5e8" x="209.196672" y="145.8" style="stroke: #000000; stroke-width: 0.6"/>
      </g>
     </g>
    </g>
    <g id="xtick_41">
     <g id="line2d_46">
      <g>
       <use xlink:href="#mdbfb05d5e8" x="211.225968" y="145.8" style="stroke: #000000; stroke-width: 0.6"/>
      </g>
     </g>
    </g>
    <g id="xtick_42">
     <g id="line2d_47">
      <g>
       <use xlink:href="#mdbfb05d5e8" x="224.983533" y="145.8" style="stroke: #000000; stroke-width: 0.6"/>
      </g>
     </g>
    </g>
    <g id="xtick_43">
     <g id="line2d_48">
      <g>
       <use xlink:href="#mdbfb05d5e8" x="231.96933" y="145.8" style="stroke: #000000; stroke-width: 0.6"/>
      </g>
     </g>
    </g>
    <g id="xtick_44">
     <g id="line2d_49">
      <g>
       <use xlink:href="#mdbfb05d5e8" x="236.925832" y="145.8" style="stroke: #000000; stroke-width: 0.6"/>
      </g>
     </g>
    </g>
    <g id="xtick_45">
     <g id="line2d_50">
      <g>
       <use xlink:href="#mdbfb05d5e8" x="240.770394" y="145.8" style="stroke: #000000; stroke-width: 0.6"/>
      </g>
     </g>
    </g>
    <g id="text_6">
     <!-- token: x -->
     <g transform="translate(122.916406 174.076563) scale(0.1 -0.1)">
      <defs>
       <path id="DejaVuSans-74" d="M 1172 4494 
L 1172 3500 
L 2356 3500 
L 2356 3053 
L 1172 3053 
L 1172 1153 
Q 1172 725 1289 603 
Q 1406 481 1766 481 
L 2356 481 
L 2356 0 
L 1766 0 
Q 1100 0 847 248 
Q 594 497 594 1153 
L 594 3053 
L 172 3053 
L 172 3500 
L 594 3500 
L 594 4494 
L 1172 4494 
z
" transform="scale(0.015625)"/>
       <path id="DejaVuSans-6f" d="M 1959 3097 
Q 1497 3097 1228 2736 
Q 959 2375 959 1747 
Q 959 1119 1226 758 
Q 1494 397 1959 397 
Q 2419 397 2687 759 
Q 2956 1122 2956 1747 
Q 2956 2369 2687 2733 
Q 2419 3097 1959 3097 
z
M 1959 3584 
Q 2709 3584 3137 3096 
Q 3566 2609 3566 1747 
Q 3566 888 3137 398 
Q 2709 -91 1959 -91 
Q 1206 -91 779 398 
Q 353 888 353 1747 
Q 353 2609 779 3096 
Q 1206 3584 1959 3584 
z
" transform="scale(0.015625)"/>
       <path id="DejaVuSans-6b" d="M 581 4863 
L 1159 4863 
L 1159 1991 
L 2875 3500 
L 3609 3500 
L 1753 1863 
L 3688 0 
L 2938 0 
L 1159 1709 
L 1159 0 
L 581 0 
L 581 4863 
z
" transform="scale(0.015625)"/>
       <path id="DejaVuSans-65" d="M 3597 1894 
L 3597 1613 
L 953 1613 
Q 991 1019 1311 708 
Q 1631 397 2203 397 
Q 2534 397 2845 478 
Q 3156 559 3463 722 
L 3463 178 
Q 3153 47 2828 -22 
Q 2503 -91 2169 -91 
Q 1331 -91 842 396 
Q 353 884 353 1716 
Q 353 2575 817 3079 
Q 1281 3584 2069 3584 
Q 2775 3584 3186 3129 
Q 3597 2675 3597 1894 
z
M 3022 2063 
Q 3016 2534 2758 2815 
Q 2500 3097 2075 3097 
Q 1594 3097 1305 2825 
Q 1016 2553 972 2059 
L 3022 2063 
z
" transform="scale(0.015625)"/>
       <path id="DejaVuSans-6e" d="M 3513 2113 
L 3513 0 
L 2938 0 
L 2938 2094 
Q 2938 2591 2744 2837 
Q 2550 3084 2163 3084 
Q 1697 3084 1428 2787 
Q 1159 2491 1159 1978 
L 1159 0 
L 581 0 
L 581 3500 
L 1159 3500 
L 1159 2956 
Q 1366 3272 1645 3428 
Q 1925 3584 2291 3584 
Q 2894 3584 3203 3211 
Q 3513 2838 3513 2113 
z
" transform="scale(0.015625)"/>
       <path id="DejaVuSans-3a" d="M 750 794 
L 1409 794 
L 1409 0 
L 750 0 
L 750 794 
z
M 750 3309 
L 1409 3309 
L 1409 2516 
L 750 2516 
L 750 3309 
z
" transform="scale(0.015625)"/>
       <path id="DejaVuSans-20" transform="scale(0.015625)"/>
       <path id="DejaVuSans-78" d="M 3513 3500 
L 2247 1797 
L 3578 0 
L 2900 0 
L 1881 1375 
L 863 0 
L 184 0 
L 1544 1831 
L 300 3500 
L 978 3500 
L 1906 2253 
L 2834 3500 
L 3513 3500 
z
" transform="scale(0.015625)"/>
      </defs>
      <use xlink:href="#DejaVuSans-74"/>
      <use xlink:href="#DejaVuSans-6f" x="39.208984"/>
      <use xlink:href="#DejaVuSans-6b" x="100.390625"/>
      <use xlink:href="#DejaVuSans-65" x="154.675781"/>
      <use xlink:href="#DejaVuSans-6e" x="216.199219"/>
      <use xlink:href="#DejaVuSans-3a" x="279.578125"/>
      <use xlink:href="#DejaVuSans-20" x="313.269531"/>
      <use xlink:href="#DejaVuSans-78" x="345.056641"/>
     </g>
    </g>
   </g>
   <g id="matplotlib.axis_2">
    <g id="ytick_1">
     <g id="line2d_51">
      <path d="M 45.478125 139.5 
L 240.778125 139.5 
" clip-path="url(#p3bd50f03f7)" style="fill: none; stroke: #b0b0b0; stroke-width: 0.8; stroke-linecap: square"/>
     </g>
     <g id="line2d_52">
      <defs>
       <path id="m586449470e" d="M 0 0 
L -3.5 0 
" style="stroke: #000000; stroke-width: 0.8"/>
      </defs>
      <g>
       <use xlink:href="#m586449470e" x="45.478125" y="139.5" style="stroke: #000000; stroke-width: 0.8"/>
      </g>
     </g>
     <g id="text_7">
      <!-- $\mathdefault{10^{0}}$ -->
      <g transform="translate(20.878125 143.299219) scale(0.1 -0.1)">
       <use xlink:href="#DejaVuSans-31" transform="translate(0 0.765625)"/>
       <use xlink:href="#DejaVuSans-30" transform="translate(63.623047 0.765625)"/>
       <use xlink:href="#DejaVuSans-30" transform="translate(128.203125 39.046875) scale(0.7)"/>
      </g>
     </g>
    </g>
    <g id="ytick_2">
     <g id="line2d_53">
      <path d="M 45.478125 101.936282 
L 240.778125 101.936282 
" clip-path="url(#p3bd50f03f7)" style="fill: none; stroke: #b0b0b0; stroke-width: 0.8; stroke-linecap: square"/>
     </g>
     <g id="line2d_54">
      <g>
       <use xlink:href="#m586449470e" x="45.478125" y="101.936282" style="stroke: #000000; stroke-width: 0.8"/>
      </g>
     </g>
     <g id="text_8">
      <!-- $\mathdefault{10^{1}}$ -->
      <g transform="translate(20.878125 105.735501) scale(0.1 -0.1)">
       <use xlink:href="#DejaVuSans-31" transform="translate(0 0.684375)"/>
       <use xlink:href="#DejaVuSans-30" transform="translate(63.623047 0.684375)"/>
       <use xlink:href="#DejaVuSans-31" transform="translate(128.203125 38.965625) scale(0.7)"/>
      </g>
     </g>
    </g>
    <g id="ytick_3">
     <g id="line2d_55">
      <path d="M 45.478125 64.372564 
L 240.778125 64.372564 
" clip-path="url(#p3bd50f03f7)" style="fill: none; stroke: #b0b0b0; stroke-width: 0.8; stroke-linecap: square"/>
     </g>
     <g id="line2d_56">
      <g>
       <use xlink:href="#m586449470e" x="45.478125" y="64.372564" style="stroke: #000000; stroke-width: 0.8"/>
      </g>
     </g>
     <g id="text_9">
      <!-- $\mathdefault{10^{2}}$ -->
      <g transform="translate(20.878125 68.171783) scale(0.1 -0.1)">
       <use xlink:href="#DejaVuSans-31" transform="translate(0 0.765625)"/>
       <use xlink:href="#DejaVuSans-30" transform="translate(63.623047 0.765625)"/>
       <use xlink:href="#DejaVuSans-32" transform="translate(128.203125 39.046875) scale(0.7)"/>
      </g>
     </g>
    </g>
    <g id="ytick_4">
     <g id="line2d_57">
      <path d="M 45.478125 26.808846 
L 240.778125 26.808846 
" clip-path="url(#p3bd50f03f7)" style="fill: none; stroke: #b0b0b0; stroke-width: 0.8; stroke-linecap: square"/>
     </g>
     <g id="line2d_58">
      <g>
       <use xlink:href="#m586449470e" x="45.478125" y="26.808846" style="stroke: #000000; stroke-width: 0.8"/>
      </g>
     </g>
     <g id="text_10">
      <!-- $\mathdefault{10^{3}}$ -->
      <g transform="translate(20.878125 30.608065) scale(0.1 -0.1)">
       <use xlink:href="#DejaVuSans-31" transform="translate(0 0.765625)"/>
       <use xlink:href="#DejaVuSans-30" transform="translate(63.623047 0.765625)"/>
       <use xlink:href="#DejaVuSans-33" transform="translate(128.203125 39.046875) scale(0.7)"/>
      </g>
     </g>
    </g>
    <g id="ytick_5">
     <g id="line2d_59">
      <defs>
       <path id="ma5aab13a45" d="M 0 0 
L -2 0 
" style="stroke: #000000; stroke-width: 0.6"/>
      </defs>
      <g>
       <use xlink:href="#ma5aab13a45" x="45.478125" y="145.318694" style="stroke: #000000; stroke-width: 0.6"/>
      </g>
     </g>
    </g>
    <g id="ytick_6">
     <g id="line2d_60">
      <g>
       <use xlink:href="#ma5aab13a45" x="45.478125" y="143.1403" style="stroke: #000000; stroke-width: 0.6"/>
      </g>
     </g>
    </g>
    <g id="ytick_7">
     <g id="line2d_61">
      <g>
       <use xlink:href="#ma5aab13a45" x="45.478125" y="141.218821" style="stroke: #000000; stroke-width: 0.6"/>
      </g>
     </g>
    </g>
    <g id="ytick_8">
     <g id="line2d_62">
      <g>
       <use xlink:href="#ma5aab13a45" x="45.478125" y="128.192194" style="stroke: #000000; stroke-width: 0.6"/>
      </g>
     </g>
    </g>
    <g id="ytick_9">
     <g id="line2d_63">
      <g>
       <use xlink:href="#ma5aab13a45" x="45.478125" y="121.577552" style="stroke: #000000; stroke-width: 0.6"/>
      </g>
     </g>
    </g>
    <g id="ytick_10">
     <g id="line2d_64">
      <g>
       <use xlink:href="#ma5aab13a45" x="45.478125" y="116.884388" style="stroke: #000000; stroke-width: 0.6"/>
      </g>
     </g>
    </g>
    <g id="ytick_11">
     <g id="line2d_65">
      <g>
       <use xlink:href="#ma5aab13a45" x="45.478125" y="113.244088" style="stroke: #000000; stroke-width: 0.6"/>
      </g>
     </g>
    </g>
    <g id="ytick_12">
     <g id="line2d_66">
      <g>
       <use xlink:href="#ma5aab13a45" x="45.478125" y="110.269746" style="stroke: #000000; stroke-width: 0.6"/>
      </g>
     </g>
    </g>
    <g id="ytick_13">
     <g id="line2d_67">
      <g>
       <use xlink:href="#ma5aab13a45" x="45.478125" y="107.754976" style="stroke: #000000; stroke-width: 0.6"/>
      </g>
     </g>
    </g>
    <g id="ytick_14">
     <g id="line2d_68">
      <g>
       <use xlink:href="#ma5aab13a45" x="45.478125" y="105.576583" style="stroke: #000000; stroke-width: 0.6"/>
      </g>
     </g>
    </g>
    <g id="ytick_15">
     <g id="line2d_69">
      <g>
       <use xlink:href="#ma5aab13a45" x="45.478125" y="103.655104" style="stroke: #000000; stroke-width: 0.6"/>
      </g>
     </g>
    </g>
    <g id="ytick_16">
     <g id="line2d_70">
      <g>
       <use xlink:href="#ma5aab13a45" x="45.478125" y="90.628476" style="stroke: #000000; stroke-width: 0.6"/>
      </g>
     </g>
    </g>
    <g id="ytick_17">
     <g id="line2d_71">
      <g>
       <use xlink:href="#ma5aab13a45" x="45.478125" y="84.013834" style="stroke: #000000; stroke-width: 0.6"/>
      </g>
     </g>
    </g>
    <g id="ytick_18">
     <g id="line2d_72">
      <g>
       <use xlink:href="#ma5aab13a45" x="45.478125" y="79.32067" style="stroke: #000000; stroke-width: 0.6"/>
      </g>
     </g>
    </g>
    <g id="ytick_19">
     <g id="line2d_73">
      <g>
       <use xlink:href="#ma5aab13a45" x="45.478125" y="75.68037" style="stroke: #000000; stroke-width: 0.6"/>
      </g>
     </g>
    </g>
    <g id="ytick_20">
     <g id="line2d_74">
      <g>
       <use xlink:href="#ma5aab13a45" x="45.478125" y="72.706028" style="stroke: #000000; stroke-width: 0.6"/>
      </g>
     </g>
    </g>
    <g id="ytick_21">
     <g id="line2d_75">
      <g>
       <use xlink:href="#ma5aab13a45" x="45.478125" y="70.191258" style="stroke: #000000; stroke-width: 0.6"/>
      </g>
     </g>
    </g>
    <g id="ytick_22">
     <g id="line2d_76">
      <g>
       <use xlink:href="#ma5aab13a45" x="45.478125" y="68.012865" style="stroke: #000000; stroke-width: 0.6"/>
      </g>
     </g>
    </g>
    <g id="ytick_23">
     <g id="line2d_77">
      <g>
       <use xlink:href="#ma5aab13a45" x="45.478125" y="66.091386" style="stroke: #000000; stroke-width: 0.6"/>
      </g>
     </g>
    </g>
    <g id="ytick_24">
     <g id="line2d_78">
      <g>
       <use xlink:href="#ma5aab13a45" x="45.478125" y="53.064758" style="stroke: #000000; stroke-width: 0.6"/>
      </g>
     </g>
    </g>
    <g id="ytick_25">
     <g id="line2d_79">
      <g>
       <use xlink:href="#ma5aab13a45" x="45.478125" y="46.450116" style="stroke: #000000; stroke-width: 0.6"/>
      </g>
     </g>
    </g>
    <g id="ytick_26">
     <g id="line2d_80">
      <g>
       <use xlink:href="#ma5aab13a45" x="45.478125" y="41.756953" style="stroke: #000000; stroke-width: 0.6"/>
      </g>
     </g>
    </g>
    <g id="ytick_27">
     <g id="line2d_81">
      <g>
       <use xlink:href="#ma5aab13a45" x="45.478125" y="38.116652" style="stroke: #000000; stroke-width: 0.6"/>
      </g>
     </g>
    </g>
    <g id="ytick_28">
     <g id="line2d_82">
      <g>
       <use xlink:href="#ma5aab13a45" x="45.478125" y="35.14231" style="stroke: #000000; stroke-width: 0.6"/>
      </g>
     </g>
    </g>
    <g id="ytick_29">
     <g id="line2d_83">
      <g>
       <use xlink:href="#ma5aab13a45" x="45.478125" y="32.62754" style="stroke: #000000; stroke-width: 0.6"/>
      </g>
     </g>
    </g>
    <g id="ytick_30">
     <g id="line2d_84">
      <g>
       <use xlink:href="#ma5aab13a45" x="45.478125" y="30.449147" style="stroke: #000000; stroke-width: 0.6"/>
      </g>
     </g>
    </g>
    <g id="ytick_31">
     <g id="line2d_85">
      <g>
       <use xlink:href="#ma5aab13a45" x="45.478125" y="28.527668" style="stroke: #000000; stroke-width: 0.6"/>
      </g>
     </g>
    </g>
    <g id="ytick_32">
     <g id="line2d_86">
      <g>
       <use xlink:href="#ma5aab13a45" x="45.478125" y="15.501041" style="stroke: #000000; stroke-width: 0.6"/>
      </g>
     </g>
    </g>
    <g id="ytick_33">
     <g id="line2d_87">
      <g>
       <use xlink:href="#ma5aab13a45" x="45.478125" y="8.886398" style="stroke: #000000; stroke-width: 0.6"/>
      </g>
     </g>
    </g>
    <g id="text_11">
     <!-- frequency: n(x) -->
     <g transform="translate(14.798438 114.517188) rotate(-90) scale(0.1 -0.1)">
      <defs>
       <path id="DejaVuSans-66" d="M 2375 4863 
L 2375 4384 
L 1825 4384 
Q 1516 4384 1395 4259 
Q 1275 4134 1275 3809 
L 1275 3500 
L 2222 3500 
L 2222 3053 
L 1275 3053 
L 1275 0 
L 697 0 
L 697 3053 
L 147 3053 
L 147 3500 
L 697 3500 
L 697 3744 
Q 697 4328 969 4595 
Q 1241 4863 1831 4863 
L 2375 4863 
z
" transform="scale(0.015625)"/>
       <path id="DejaVuSans-72" d="M 2631 2963 
Q 2534 3019 2420 3045 
Q 2306 3072 2169 3072 
Q 1681 3072 1420 2755 
Q 1159 2438 1159 1844 
L 1159 0 
L 581 0 
L 581 3500 
L 1159 3500 
L 1159 2956 
Q 1341 3275 1631 3429 
Q 1922 3584 2338 3584 
Q 2397 3584 2469 3576 
Q 2541 3569 2628 3553 
L 2631 2963 
z
" transform="scale(0.015625)"/>
       <path id="DejaVuSans-71" d="M 947 1747 
Q 947 1113 1208 752 
Q 1469 391 1925 391 
Q 2381 391 2643 752 
Q 2906 1113 2906 1747 
Q 2906 2381 2643 2742 
Q 2381 3103 1925 3103 
Q 1469 3103 1208 2742 
Q 947 2381 947 1747 
z
M 2906 525 
Q 2725 213 2448 61 
Q 2172 -91 1784 -91 
Q 1150 -91 751 415 
Q 353 922 353 1747 
Q 353 2572 751 3078 
Q 1150 3584 1784 3584 
Q 2172 3584 2448 3432 
Q 2725 3281 2906 2969 
L 2906 3500 
L 3481 3500 
L 3481 -1331 
L 2906 -1331 
L 2906 525 
z
" transform="scale(0.015625)"/>
       <path id="DejaVuSans-75" d="M 544 1381 
L 544 3500 
L 1119 3500 
L 1119 1403 
Q 1119 906 1312 657 
Q 1506 409 1894 409 
Q 2359 409 2629 706 
Q 2900 1003 2900 1516 
L 2900 3500 
L 3475 3500 
L 3475 0 
L 2900 0 
L 2900 538 
Q 2691 219 2414 64 
Q 2138 -91 1772 -91 
Q 1169 -91 856 284 
Q 544 659 544 1381 
z
M 1991 3584 
L 1991 3584 
z
" transform="scale(0.015625)"/>
       <path id="DejaVuSans-63" d="M 3122 3366 
L 3122 2828 
Q 2878 2963 2633 3030 
Q 2388 3097 2138 3097 
Q 1578 3097 1268 2742 
Q 959 2388 959 1747 
Q 959 1106 1268 751 
Q 1578 397 2138 397 
Q 2388 397 2633 464 
Q 2878 531 3122 666 
L 3122 134 
Q 2881 22 2623 -34 
Q 2366 -91 2075 -91 
Q 1284 -91 818 406 
Q 353 903 353 1747 
Q 353 2603 823 3093 
Q 1294 3584 2113 3584 
Q 2378 3584 2631 3529 
Q 2884 3475 3122 3366 
z
" transform="scale(0.015625)"/>
       <path id="DejaVuSans-79" d="M 2059 -325 
Q 1816 -950 1584 -1140 
Q 1353 -1331 966 -1331 
L 506 -1331 
L 506 -850 
L 844 -850 
Q 1081 -850 1212 -737 
Q 1344 -625 1503 -206 
L 1606 56 
L 191 3500 
L 800 3500 
L 1894 763 
L 2988 3500 
L 3597 3500 
L 2059 -325 
z
" transform="scale(0.015625)"/>
       <path id="DejaVuSans-28" d="M 1984 4856 
Q 1566 4138 1362 3434 
Q 1159 2731 1159 2009 
Q 1159 1288 1364 580 
Q 1569 -128 1984 -844 
L 1484 -844 
Q 1016 -109 783 600 
Q 550 1309 550 2009 
Q 550 2706 781 3412 
Q 1013 4119 1484 4856 
L 1984 4856 
z
" transform="scale(0.015625)"/>
       <path id="DejaVuSans-29" d="M 513 4856 
L 1013 4856 
Q 1481 4119 1714 3412 
Q 1947 2706 1947 2009 
Q 1947 1309 1714 600 
Q 1481 -109 1013 -844 
L 513 -844 
Q 928 -128 1133 580 
Q 1338 1288 1338 2009 
Q 1338 2731 1133 3434 
Q 928 4138 513 4856 
z
" transform="scale(0.015625)"/>
      </defs>
      <use xlink:href="#DejaVuSans-66"/>
      <use xlink:href="#DejaVuSans-72" x="35.205078"/>
      <use xlink:href="#DejaVuSans-65" x="74.068359"/>
      <use xlink:href="#DejaVuSans-71" x="135.591797"/>
      <use xlink:href="#DejaVuSans-75" x="199.068359"/>
      <use xlink:href="#DejaVuSans-65" x="262.447266"/>
      <use xlink:href="#DejaVuSans-6e" x="323.970703"/>
      <use xlink:href="#DejaVuSans-63" x="387.349609"/>
      <use xlink:href="#DejaVuSans-79" x="442.330078"/>
      <use xlink:href="#DejaVuSans-3a" x="494.259766"/>
      <use xlink:href="#DejaVuSans-20" x="527.951172"/>
      <use xlink:href="#DejaVuSans-6e" x="559.738281"/>
      <use xlink:href="#DejaVuSans-28" x="623.117188"/>
      <use xlink:href="#DejaVuSans-78" x="662.130859"/>
      <use xlink:href="#DejaVuSans-29" x="721.310547"/>
     </g>
    </g>
   </g>
   <g id="line2d_88">
    <path d="M -1 22.934991 
L 54.355398 22.948175 
L 66.297697 23.233932 
L 73.283494 24.458034 
L 78.239996 30.126092 
L 82.084558 32.744485 
L 85.225793 36.502574 
L 87.88167 36.830949 
L 90.182295 40.091237 
L 94.026857 40.3137 
L 95.668965 43.749961 
L 97.168092 47.517487 
L 98.547156 48.168938 
L 101.012654 51.43591 
L 102.124594 51.809238 
L 103.169102 52.741704 
L 104.15389 53.064758 
L 105.085419 56.910265 
L 105.969156 57.541843 
L 106.809766 59.236831 
L 107.611264 59.236831 
L 108.377128 59.598035 
L 109.110391 60.218404 
L 109.813718 60.473311 
L 110.489455 60.995394 
L 111.139687 61.128568 
L 112.37086 61.128568 
L 113.519892 61.672409 
L 114.066893 62.235006 
L 114.597061 62.235006 
L 115.111401 62.378741 
L 115.61083 62.378741 
L 116.096189 62.523752 
L 116.568248 63.421982 
L 117.027718 63.576615 
L 117.475252 63.89035 
L 117.911455 65.381982 
L 118.752065 65.732828 
L 119.157475 65.732828 
L 119.553563 65.911122 
L 119.94075 66.273664 
L 121.407942 67.023852 
L 122.097198 67.023852 
L 122.431754 67.216916 
L 122.759937 67.216916 
L 123.081986 67.610036 
L 123.708567 68.636395 
L 124.013515 69.065728 
L 124.313159 69.284707 
L 124.897252 69.284707 
L 126.009193 70.191258 
L 126.53936 70.191258 
L 126.798449 70.425992 
L 127.553129 72.436374 
L 128.038488 72.980215 
L 128.276134 72.980215 
L 128.510547 73.542812 
L 128.970017 73.542812 
L 129.417551 74.42485 
L 129.637033 74.42485 
L 130.898262 76.009951 
L 131.690544 76.009951 
L 131.883049 76.346328 
L 132.073428 76.346328 
L 132.261726 76.689788 
L 132.447988 76.689788 
L 132.632259 77.040634 
L 133.173531 77.040634 
L 133.350241 77.399192 
L 133.525158 77.399192 
L 133.869751 78.140852 
L 134.207587 78.140852 
L 134.374053 78.524722 
L 134.538926 78.524722 
L 134.864013 79.32067 
L 135.340424 79.32067 
L 135.650867 80.157455 
L 135.804015 80.157455 
L 135.955814 80.592513 
L 136.54998 80.592513 
L 136.695374 81.039492 
L 137.40449 81.039492 
L 137.542877 81.499064 
L 138.085571 81.499064 
L 138.218615 81.971958 
L 138.868847 81.971958 
L 138.995999 82.458971 
L 139.247523 82.458971 
L 139.371922 82.960971 
L 139.860723 82.960971 
L 139.980787 83.47891 
L 140.218433 83.47891 
L 140.336039 84.013834 
L 140.568868 84.013834 
L 140.684113 84.566894 
L 140.798592 84.566894 
L 141.025294 85.139364 
L 141.469941 85.139364 
L 141.688034 85.732655 
L 142.010082 85.732655 
L 142.221485 86.34834 
L 142.738914 86.34834 
L 142.941611 86.988176 
L 143.141952 86.988176 
L 143.33999 87.654134 
L 143.632843 87.654134 
L 143.825349 88.34844 
L 144.204025 88.34844 
L 144.390288 89.073613 
L 145.204412 89.073613 
L 145.380221 89.832527 
L 145.981796 89.832527 
L 146.149886 90.628476 
L 147.046164 90.628476 
L 147.204231 91.46526 
L 147.898113 91.46526 
L 148.048587 92.347298 
L 148.271861 92.347298 
L 148.419119 93.279764 
L 148.924831 93.279764 
L 149.066635 94.268777 
L 150.160914 94.268777 
L 150.292938 95.32164 
L 150.938298 95.32164 
L 151.064519 96.44717 
L 151.803022 96.44717 
L 151.923086 97.656146 
L 153.246839 97.656146 
L 153.41224 98.96194 
L 154.163784 98.96194 
L 154.320651 100.381419 
L 155.767648 100.381419 
L 155.910629 101.936282 
L 157.496553 101.936282 
L 157.625933 103.655104 
L 159.107149 103.655104 
L 159.225022 105.576583 
L 161.427476 105.576583 
L 161.56476 107.754976 
L 164.103032 107.754976 
L 164.220637 110.269746 
L 166.674411 110.269746 
L 166.801003 113.244088 
L 170.013563 113.244088 
L 170.138714 116.884388 
L 174.078613 116.884388 
L 174.193969 121.577552 
L 179.386992 121.577552 
L 179.508069 128.192194 
L 186.804739 128.192194 
L 186.922828 139.5 
L 199.579747 139.5 
L 199.579747 139.5 
" clip-path="url(#p3bd50f03f7)" style="fill: none; stroke: #1f77b4; stroke-width: 1.5; stroke-linecap: square"/>
   </g>
   <g id="line2d_89">
    <path d="M -1 55.798556 
L 54.355398 55.812292 
L 73.283494 62.523752 
L 78.239996 62.966686 
L 82.084558 64.04951 
L 85.225793 64.536523 
L 87.88167 67.023852 
L 90.182295 68.425892 
L 92.21159 69.506666 
L 94.026857 70.664152 
L 95.668965 70.905841 
L 97.168092 72.171104 
L 98.547156 72.436374 
L 99.823969 72.436374 
L 101.012654 72.706028 
L 102.124594 75.357316 
L 103.169102 75.357316 
L 104.15389 76.009951 
L 105.085419 76.009951 
L 105.969156 76.689788 
L 106.809766 76.689788 
L 108.377128 77.399192 
L 109.813718 77.399192 
L 110.489455 77.765807 
L 111.139687 77.765807 
L 111.766268 78.917842 
L 112.37086 79.32067 
L 112.954953 79.32067 
L 113.519892 79.733698 
L 115.111401 79.733698 
L 115.61083 80.592513 
L 116.096189 81.039492 
L 117.027718 81.039492 
L 117.475252 81.971958 
L 118.336886 81.971958 
L 118.752065 82.960971 
L 119.157475 82.960971 
L 119.94075 84.013834 
L 121.052691 84.013834 
L 121.756017 85.139364 
L 122.431754 85.139364 
L 122.759937 85.732655 
L 123.708567 85.732655 
L 124.013515 86.34834 
L 124.607681 86.34834 
L 124.897252 86.988176 
L 125.462191 86.988176 
L 125.737863 87.654134 
L 126.53936 87.654134 
L 126.798449 88.34844 
L 127.553129 88.34844 
L 127.797518 89.073613 
L 129.637033 89.073613 
L 129.853754 89.832527 
L 130.898262 89.832527 
L 131.099774 90.628476 
L 131.495862 90.628476 
L 131.690544 91.46526 
L 133.173531 91.46526 
L 133.350241 92.347298 
L 134.538926 92.347298 
L 134.702236 93.279764 
L 135.18308 93.279764 
L 135.340424 94.268777 
L 137.542877 94.268777 
L 137.680162 95.32164 
L 139.980787 95.32164 
L 140.10002 96.44717 
L 141.796053 96.44717 
L 142.010082 97.656146 
L 143.535777 97.656146 
L 143.729364 98.96194 
L 145.292541 98.96194 
L 145.467457 100.381419 
L 147.438644 100.381419 
L 147.593166 101.936282 
L 150.489097 101.936282 
L 150.61864 103.655104 
L 152.854615 103.655104 
L 152.967594 105.576583 
L 156.099442 105.576583 
L 156.239707 107.754976 
L 159.458377 107.754976 
L 159.57388 110.269746 
L 163.225504 110.269746 
L 163.349233 113.244088 
L 167.82918 113.244088 
L 167.947593 116.884388 
L 174.128146 116.884388 
L 174.243171 121.577552 
L 182.205262 121.577552 
L 182.318375 128.192194 
L 195.477351 128.192194 
L 195.591578 139.5 
L 225.183092 139.5 
L 225.183092 139.5 
" clip-path="url(#p3bd50f03f7)" style="fill: none; stroke-dasharray: 5.55,2.4; stroke-dashoffset: 0; stroke: #bf00bf; stroke-width: 1.5"/>
   </g>
   <g id="line2d_90">
    <path d="M -1 83.998438 
L 54.355398 84.013834 
L 66.297697 87.654134 
L 73.283494 94.268777 
L 78.239996 95.32164 
L 82.084558 95.32164 
L 85.225793 96.44717 
L 87.88167 96.44717 
L 90.182295 97.656146 
L 92.21159 97.656146 
L 94.026857 98.96194 
L 98.547156 98.96194 
L 99.823969 100.381419 
L 105.969156 100.381419 
L 106.809766 101.936282 
L 109.813718 101.936282 
L 110.489455 103.655104 
L 114.066893 103.655104 
L 114.597061 105.576583 
L 121.052691 105.576583 
L 121.407942 107.754976 
L 126.276316 107.754976 
L 126.53936 110.269746 
L 132.632259 110.269746 
L 132.814579 113.244088 
L 140.568868 113.244088 
L 140.684113 116.884388 
L 148.271861 116.884388 
L 148.419119 121.577552 
L 160.652212 121.577552 
L 160.795788 128.192194 
L 181.787567 128.192194 
L 181.903446 139.5 
L 231.900852 139.5 
L 231.900852 139.5 
" clip-path="url(#p3bd50f03f7)" style="fill: none; stroke-dasharray: 9.6,2.4,1.5,2.4; stroke-dashoffset: 0; stroke: #008000; stroke-width: 1.5"/>
   </g>
   <g id="patch_3">
    <path d="M 45.478125 145.8 
L 45.478125 7.2 
" style="fill: none; stroke: #000000; stroke-width: 0.8; stroke-linejoin: miter; stroke-linecap: square"/>
   </g>
   <g id="patch_4">
    <path d="M 240.778125 145.8 
L 240.778125 7.2 
" style="fill: none; stroke: #000000; stroke-width: 0.8; stroke-linejoin: miter; stroke-linecap: square"/>
   </g>
   <g id="patch_5">
    <path d="M 45.478125 145.8 
L 240.778125 145.8 
" style="fill: none; stroke: #000000; stroke-width: 0.8; stroke-linejoin: miter; stroke-linecap: square"/>
   </g>
   <g id="patch_6">
    <path d="M 45.478125 7.2 
L 240.778125 7.2 
" style="fill: none; stroke: #000000; stroke-width: 0.8; stroke-linejoin: miter; stroke-linecap: square"/>
   </g>
   <g id="legend_1">
    <g id="patch_7">
     <path d="M 159.996875 59.234375 
L 233.778125 59.234375 
Q 235.778125 59.234375 235.778125 57.234375 
L 235.778125 14.2 
Q 235.778125 12.2 233.778125 12.2 
L 159.996875 12.2 
Q 157.996875 12.2 157.996875 14.2 
L 157.996875 57.234375 
Q 157.996875 59.234375 159.996875 59.234375 
z
" style="fill: #ffffff; opacity: 0.8; stroke: #cccccc; stroke-linejoin: miter"/>
    </g>
    <g id="line2d_91">
     <path d="M 161.996875 20.298438 
L 171.996875 20.298438 
L 181.996875 20.298438 
" style="fill: none; stroke: #1f77b4; stroke-width: 1.5; stroke-linecap: square"/>
    </g>
    <g id="text_12">
     <!-- unigram -->
     <g transform="translate(189.996875 23.798438) scale(0.1 -0.1)">
      <defs>
       <path id="DejaVuSans-69" d="M 603 3500 
L 1178 3500 
L 1178 0 
L 603 0 
L 603 3500 
z
M 603 4863 
L 1178 4863 
L 1178 4134 
L 603 4134 
L 603 4863 
z
" transform="scale(0.015625)"/>
       <path id="DejaVuSans-67" d="M 2906 1791 
Q 2906 2416 2648 2759 
Q 2391 3103 1925 3103 
Q 1463 3103 1205 2759 
Q 947 2416 947 1791 
Q 947 1169 1205 825 
Q 1463 481 1925 481 
Q 2391 481 2648 825 
Q 2906 1169 2906 1791 
z
M 3481 434 
Q 3481 -459 3084 -895 
Q 2688 -1331 1869 -1331 
Q 1566 -1331 1297 -1286 
Q 1028 -1241 775 -1147 
L 775 -588 
Q 1028 -725 1275 -790 
Q 1522 -856 1778 -856 
Q 2344 -856 2625 -561 
Q 2906 -266 2906 331 
L 2906 616 
Q 2728 306 2450 153 
Q 2172 0 1784 0 
Q 1141 0 747 490 
Q 353 981 353 1791 
Q 353 2603 747 3093 
Q 1141 3584 1784 3584 
Q 2172 3584 2450 3431 
Q 2728 3278 2906 2969 
L 2906 3500 
L 3481 3500 
L 3481 434 
z
" transform="scale(0.015625)"/>
       <path id="DejaVuSans-61" d="M 2194 1759 
Q 1497 1759 1228 1600 
Q 959 1441 959 1056 
Q 959 750 1161 570 
Q 1363 391 1709 391 
Q 2188 391 2477 730 
Q 2766 1069 2766 1631 
L 2766 1759 
L 2194 1759 
z
M 3341 1997 
L 3341 0 
L 2766 0 
L 2766 531 
Q 2569 213 2275 61 
Q 1981 -91 1556 -91 
Q 1019 -91 701 211 
Q 384 513 384 1019 
Q 384 1609 779 1909 
Q 1175 2209 1959 2209 
L 2766 2209 
L 2766 2266 
Q 2766 2663 2505 2880 
Q 2244 3097 1772 3097 
Q 1472 3097 1187 3025 
Q 903 2953 641 2809 
L 641 3341 
Q 956 3463 1253 3523 
Q 1550 3584 1831 3584 
Q 2591 3584 2966 3190 
Q 3341 2797 3341 1997 
z
" transform="scale(0.015625)"/>
       <path id="DejaVuSans-6d" d="M 3328 2828 
Q 3544 3216 3844 3400 
Q 4144 3584 4550 3584 
Q 5097 3584 5394 3201 
Q 5691 2819 5691 2113 
L 5691 0 
L 5113 0 
L 5113 2094 
Q 5113 2597 4934 2840 
Q 4756 3084 4391 3084 
Q 3944 3084 3684 2787 
Q 3425 2491 3425 1978 
L 3425 0 
L 2847 0 
L 2847 2094 
Q 2847 2600 2669 2842 
Q 2491 3084 2119 3084 
Q 1678 3084 1418 2786 
Q 1159 2488 1159 1978 
L 1159 0 
L 581 0 
L 581 3500 
L 1159 3500 
L 1159 2956 
Q 1356 3278 1631 3431 
Q 1906 3584 2284 3584 
Q 2666 3584 2933 3390 
Q 3200 3197 3328 2828 
z
" transform="scale(0.015625)"/>
      </defs>
      <use xlink:href="#DejaVuSans-75"/>
      <use xlink:href="#DejaVuSans-6e" x="63.378906"/>
      <use xlink:href="#DejaVuSans-69" x="126.757812"/>
      <use xlink:href="#DejaVuSans-67" x="154.541016"/>
      <use xlink:href="#DejaVuSans-72" x="218.017578"/>
      <use xlink:href="#DejaVuSans-61" x="259.130859"/>
      <use xlink:href="#DejaVuSans-6d" x="320.410156"/>
     </g>
    </g>
    <g id="line2d_92">
     <path d="M 161.996875 34.976563 
L 171.996875 34.976563 
L 181.996875 34.976563 
" style="fill: none; stroke-dasharray: 5.55,2.4; stroke-dashoffset: 0; stroke: #bf00bf; stroke-width: 1.5"/>
    </g>
    <g id="text_13">
     <!-- bigram -->
     <g transform="translate(189.996875 38.476563) scale(0.1 -0.1)">
      <defs>
       <path id="DejaVuSans-62" d="M 3116 1747 
Q 3116 2381 2855 2742 
Q 2594 3103 2138 3103 
Q 1681 3103 1420 2742 
Q 1159 2381 1159 1747 
Q 1159 1113 1420 752 
Q 1681 391 2138 391 
Q 2594 391 2855 752 
Q 3116 1113 3116 1747 
z
M 1159 2969 
Q 1341 3281 1617 3432 
Q 1894 3584 2278 3584 
Q 2916 3584 3314 3078 
Q 3713 2572 3713 1747 
Q 3713 922 3314 415 
Q 2916 -91 2278 -91 
Q 1894 -91 1617 61 
Q 1341 213 1159 525 
L 1159 0 
L 581 0 
L 581 4863 
L 1159 4863 
L 1159 2969 
z
" transform="scale(0.015625)"/>
      </defs>
      <use xlink:href="#DejaVuSans-62"/>
      <use xlink:href="#DejaVuSans-69" x="63.476562"/>
      <use xlink:href="#DejaVuSans-67" x="91.259766"/>
      <use xlink:href="#DejaVuSans-72" x="154.736328"/>
      <use xlink:href="#DejaVuSans-61" x="195.849609"/>
      <use xlink:href="#DejaVuSans-6d" x="257.128906"/>
     </g>
    </g>
    <g id="line2d_93">
     <path d="M 161.996875 49.654688 
L 171.996875 49.654688 
L 181.996875 49.654688 
" style="fill: none; stroke-dasharray: 9.6,2.4,1.5,2.4; stroke-dashoffset: 0; stroke: #008000; stroke-width: 1.5"/>
    </g>
    <g id="text_14">
     <!-- trigram -->
     <g transform="translate(189.996875 53.154688) scale(0.1 -0.1)">
      <use xlink:href="#DejaVuSans-74"/>
      <use xlink:href="#DejaVuSans-72" x="39.208984"/>
      <use xlink:href="#DejaVuSans-69" x="80.322266"/>
      <use xlink:href="#DejaVuSans-67" x="108.105469"/>
      <use xlink:href="#DejaVuSans-72" x="171.582031"/>
      <use xlink:href="#DejaVuSans-61" x="212.695312"/>
      <use xlink:href="#DejaVuSans-6d" x="273.974609"/>
     </g>
    </g>
   </g>
  </g>
 </g>
 <defs>
  <clipPath id="p3bd50f03f7">
   <rect x="45.478125" y="7.2" width="195.3" height="138.6"/>
  </clipPath>
 </defs>
</svg>
